{
    "accessors" : [
        {
            "bufferView" : 0,
            "componentType" : 5123,
            "count" : 39396,
            "max" : [
                8539
            ],
            "min" : [
                0
            ],
            "type" : "SCALAR"
        },
        {
            "bufferView" : 1,
            "componentType" : 5126,
            "count" : 8540,
            "max" : [
                1.4078069925308228,
                1.0964670181274414,
                1.0
            ],
            "min" : [
                -1.4078069925308228,
                -1.0,
                -0.9999979734420776
            ],
            "type" : "VEC3"
        },
        {
            "bufferView" : 2,
            "componentType" : 5126,
            "count" : 8540,
            "max" : [
                1.0,
                0.999969482421875,
                0.999969482421875
            ],
            "min" : [
                -1.0,
                -0.999969482421875,
                -0.999969482421875
            ],
            "type" : "VEC3"
        },
        {
            "bufferView" : 3,
            "componentType" : 5126,
            "count" : 8540,
            "max" : [
                0.9999809265136719,
                0.9982869029045105,
                0.9985446929931641,
                1.0
            ],
            "min" : [
                -0.9999809265136719,
                -0.9911240935325623,
                -0.9950542449951172,
                -1.0
            ],
            "type" : "VEC4"
        },
        {
            "bufferView" : 4,
            "componentType" : 5126,
            "count" : 8540,
            "max" : [
                0.977292001247406,
                0.9795999992638826
            ],
            "min" : [
                0.023062000051140785,
                0.020049989223480225
            ],
            "type" : "VEC2"
        }
    ],
    "asset" : {
        "generator" : "Khronos Blender glTF 2.0 exporter",
        "version" : "2.0"
    },
    "bufferViews" : [
        {
            "buffer" : 0,
            "byteLength" : 78792,
            "byteOffset" : 0,
            "target" : 34963
        },
        {
            "buffer" : 0,
            "byteLength" : 102480,
            "byteOffset" : 78792,
            "target" : 34962
        },
        {
            "buffer" : 0,
            "byteLength" : 102480,
            "byteOffset" : 181272,
            "target" : 34962
        },
        {
            "buffer" : 0,
            "byteLength" : 136640,
            "byteOffset" : 283752,
            "target" : 34962
        },
        {
            "buffer" : 0,
            "byteLength" : 68320,
            "byteOffset" : 420392,
            "target" : 34962
        }
    ],
    "buffers" : [
        {
            "byteLength" : 488712,
            "uri" : "thing.bin"
        }
    ],
    "images" : [
        {
            "name" : "thing",
            "uri" : "thing.png"
        }
    ],
    "materials" : [
        {
            "name" : "(null)",
            "pbrMetallicRoughness" : {
                "baseColorFactor" : [
                    0.6400000190734865,
                    0.6400000190734865,
                    0.6400000190734865,
                    1.0
                ],
                "baseColorTexture" : {
                    "index" : 0
                },
                "metallicFactor" : 0.0
            }
        }
    ],
    "meshes" : [
        {
            "name" : "thing",
            "primitives" : [
                {
                    "attributes" : {
                        "NORMAL" : 2,
                        "POSITION" : 1,
                        "TANGENT" : 3,
                        "TEXCOORD_0" : 4
                    },
                    "indices" : 0,
                    "material" : 0
                }
            ]
        }
    ],
    "nodes" : [
        {
            "name" : "Camera",
            "rotation" : [
                0.483536034822464,
                0.33687159419059753,
                -0.20870360732078552,
                0.7804827094078064
            ],
            "translation" : [
                7.481131553649902,
                5.34366512298584,
                6.5076398849487305
            ]
        },
        {
            "name" : "Lamp",
            "rotation" : [
                0.16907575726509094,
                0.7558802962303162,
                -0.27217137813568115,
                0.570947527885437
            ],
            "scale" : [
                1.0,
                1.0,
                0.9999999403953552
            ],
            "translation" : [
                4.076245307922363,
                5.903861999511719,
                -1.0054539442062378
            ]
        },
        {
            "mesh" : 0,
            "name" : "thing",
            "rotation" : [
                0.7071068286895752,
                0.0,
                -0.0,
                0.7071067094802856
            ]
        }
    ],
    "samplers" : [
        {}
    ],
    "scene" : 0,
    "scenes" : [
        {
            "name" : "Scene",
            "nodes" : [
                2,
                1,
                0
            ]
        }
    ],
    "textures" : [
        {
            "sampler" : 0,
            "source" : 0
        }
    ]
}
